<svg xmlns:xlink="http://www.w3.org/1999/xlink" viewBox="0 0 20 20" class="btn-icon" xmlns="http://www.w3.org/2000/svg"><use xlink:href="#cart_svg__a" opacity=".01"></use><use xlink:href="#cart_svg__b" transform="translate(14.043 15.043)"></use><use xlink:href="#cart_svg__b" transform="translate(4.956 15.043)"></use><use xlink:href="#cart_svg__c" transform="translate(0 1)"></use><use xlink:href="#cart_svg__d" transform="translate(4.058 5.956)"></use><defs><path id="cart_svg__a" fill-rule="evenodd" d="M0 0h20v20H0z"></path><path id="cart_svg__b" fill-rule="evenodd" d="M0 1.74a1.74 1.74 0 113.48 0 1.74 1.74 0 01-3.48 0M1.74 1a.74.74 0 100 1.48.74.74 0 000-1.48"></path><path id="cart_svg__c" fill-rule="evenodd" d="M0 .5A.5.5 0 01.5 0h2.891a.5.5 0 01.487.385l3.214 13.658h8.69a.5.5 0 110 1H6.696a.5.5 0 01-.487-.385L2.995 1H.5A.5.5 0 010 .5"></path><path id="cart_svg__d" fill-rule="evenodd" d="M0 .5A.5.5 0 01.5 0h14.942a.5.5 0 01.474.658l-2.478 7.435a.5.5 0 01-.474.342H2.249a.5.5 0 010-1h10.355L14.748 1H.5A.5.5 0 010 .5"></path></defs></svg>