<svg xmlns="http://www.w3.org/2000/svg" class="header-btn-icon inline-svg inlined-svg" data-src="/assets/icons/monsterEye.svg" role="img" aria-labelledby="title"><title>monsterEye</title><path fill-rule="evenodd" clip-rule="evenodd" d="M18 9A9 9 0 1 1 .352 6.5 11.87 11.87 0 0 1 0 3.652c0-.759.095-1.518.238-2.277v-.047C.333.854.428.427.57 0l2.824 1.958A8.962 8.962 0 0 1 9 0c2.12 0 4.067.732 5.605 1.958L17.43 0c.142.427.237.854.332 1.328v.047c.143.76.238 1.518.238 2.277 0 .98-.127 1.938-.352 2.848.23.794.352 1.633.352 2.5zm-9 4.304a4.304 4.304 0 1 0 0-8.608 4.304 4.304 0 0 0 0 8.608z"></path><path d="m9.747 9.747.934 5.23 2.801-1.196v-2.39L9.747 9.746zm6.297-4.66c0 1.729-3.154 3.13-7.044 3.13-3.89 0-7.043-1.401-7.043-3.13 0-1.729 3.153-3.13 7.043-3.13s7.044 1.401 7.044 3.13z"></path></svg>